<svg width="50" height="48" viewBox="0 0 50 48" fill="none" xmlns="http://www.w3.org/2000/svg">
<g clip-path="url(#clip0_224_15)">
<path d="M0 5.55019C0 3.94141 0.563079 2.61419 1.68919 1.56853C2.8153 0.522828 4.2793 0 6.08108 0C7.85072 0 9.28248 0.514768 10.3764 1.5444C11.5026 2.60618 12.0656 3.98967 12.0656 5.69498C12.0656 7.23938 11.5187 8.52635 10.4247 9.55598C9.2986 10.6178 7.81853 11.1486 5.98456 11.1486H5.93629C4.16665 11.1486 2.73489 10.6178 1.64093 9.55598C0.546959 8.49421 0 7.15893 0 5.55019ZM0.627413 47.7799V15.5405H11.3417V47.7799H0.627413ZM17.278 47.7799H27.9923V29.778C27.9923 28.6518 28.121 27.7831 28.3784 27.1718C28.8288 26.0778 29.5125 25.1528 30.4295 24.3967C31.3465 23.6406 32.4968 23.2625 33.8803 23.2625C37.4839 23.2625 39.2857 25.6917 39.2857 30.5502V47.7799H50V29.2954C50 24.5334 48.8739 20.9218 46.6216 18.4604C44.3694 15.999 41.3932 14.7683 37.6931 14.7683C33.5425 14.7683 30.3089 16.5541 27.9923 20.1255V20.222H27.944L27.9923 20.1255V15.5405H17.278C17.3423 16.5701 17.3745 19.7715 17.3745 25.1448C17.3745 30.518 17.3423 38.063 17.278 47.7799Z" fill="white"/>
</g>
<defs>
<clipPath id="clip0_224_15">
<rect width="50" height="47.78" fill="white"/>
</clipPath>
</defs>
</svg>
