<svg width="50" height="21" viewBox="0 0 50 21" fill="none" xmlns="http://www.w3.org/2000/svg">
<path fill-rule="evenodd" clip-rule="evenodd" d="M39.7945 14.2876C41.9729 14.2876 43.8177 12.4898 43.8177 10.2431C43.8177 7.99629 41.973 6.22135 39.7945 6.22135C37.5493 6.22135 35.7501 7.99629 35.7501 10.2431C35.7501 12.4898 37.5493 14.2875 39.7945 14.2875M34.6714 10.2431C34.6714 7.41234 36.9637 5.12155 39.7945 5.12155C42.6268 5.12155 44.9161 7.41229 44.9161 10.2431C44.9161 13.0952 42.6268 15.3889 39.7945 15.3889C36.9637 15.3889 34.6714 13.0952 34.6714 10.2431ZM27.4852 10.2431C28.1345 10.197 29.1918 9.4573 29.5954 9.00822C29.4376 9.54673 29.4376 11.2535 29.5954 11.7935C29.1463 11.1427 28.1344 10.3554 27.4852 10.2431ZM23.8002 4.83027C24.6088 4.83027 25.2597 5.61612 25.2597 6.51568C25.2597 7.41229 24.6088 8.20118 23.8002 8.20118H21.0119V4.83022L23.8002 4.83027ZM23.8002 12.3988C24.6088 12.3988 25.2597 13.1862 25.2597 14.0843C25.2597 15.0293 24.6088 15.8137 23.8002 15.8137H21.0119V12.3988H23.8002ZM39.7945 20.6C45.4106 20.6 49.9936 15.9274 49.9936 10.2431C49.9936 4.46922 45.4106 0 39.7945 0C34.1116 0 31.2353 4.13241 30.5405 5.81781C30.5405 3.32377 28.0449 0.336761 25.1474 0.336761H15.7796V20.5106H24.4951C28.0449 20.5106 30.5405 17.4765 30.5405 14.8261C31.3263 16.4661 34.1116 20.6 39.7945 20.6M14.6585 20.5102H9.17586V12.6912H5.62445V20.5102H0.00683594V0.336411H5.62445V7.86097H9.17586V0.336461H14.6585V20.5102Z" fill="black"/>
</svg>
