<svg width="50" height="14" viewBox="0 0 50 14" fill="none" xmlns="http://www.w3.org/2000/svg">
<path d="M9.77007 8.4132C9.27652 8.49718 8.66275 8.68041 8.44129 8.81019C8.28943 8.89417 8.2831 8.92471 8.2831 9.69579C8.2831 10.6196 8.27045 10.6043 8.88422 10.3065C9.07404 10.2149 9.32081 10.1157 9.42205 10.0775C9.52962 10.0393 9.77007 9.94009 9.95989 9.84848C10.1497 9.75687 10.3965 9.65762 10.4977 9.62708C10.6053 9.59654 10.7508 9.52783 10.8268 9.48203C10.9027 9.42859 11.2381 9.39041 11.5987 9.39041C12.1808 9.39041 12.2378 9.40568 12.3074 9.55074C12.358 9.68052 12.358 9.73396 12.2884 9.81794C12.1935 9.93246 11.624 10.2149 11.3519 10.2836C11.2634 10.3066 11.1684 10.3524 11.1305 10.3829C11.0988 10.4134 10.966 10.4821 10.8457 10.5203C10.7255 10.5661 10.4661 10.673 10.2763 10.7646C10.0864 10.8562 9.846 10.9555 9.73843 10.9937C9.63719 11.0318 9.39042 11.1311 9.20059 11.2227C9.01077 11.3143 8.75767 11.4135 8.64377 11.4517C8.27677 11.5586 8.25146 11.6273 8.25146 12.4518C8.25146 13.2 8.25146 13.2076 8.40332 13.2076C8.49191 13.2076 8.57417 13.1771 8.59315 13.1389C8.61213 13.1008 8.70705 13.055 8.80196 13.0321C8.9032 13.0092 9.09302 12.9404 9.23223 12.8717C9.37143 12.8107 9.64352 12.6809 9.83334 12.5969C10.0232 12.5053 10.2699 12.406 10.3712 12.3679C10.4787 12.3297 10.7192 12.2304 10.909 12.1388C11.5797 11.8258 11.7632 11.7495 11.9531 11.6808C12.0606 11.6502 12.3011 11.5433 12.4909 11.4517C12.6807 11.3601 12.9085 11.2609 12.9971 11.2227C14.2563 10.6959 14.7119 10.1462 14.3765 9.5431C14.1234 9.08503 13.1047 8.59643 11.9974 8.40557C11.4658 8.30632 10.3585 8.31395 9.77007 8.4132Z" fill="black"/>
<path d="M5.46737 0.0916134V6.36715C5.46737 10.8638 5.48636 12.5587 5.53698 12.6045C5.57494 12.6274 5.7268 12.6961 5.87233 12.7496C6.01154 12.803 6.233 12.887 6.35322 12.9404C6.47345 12.9939 6.74553 13.1007 6.95434 13.1695C7.16315 13.2458 7.39726 13.3374 7.47952 13.368C7.56178 13.4061 7.65036 13.4367 7.682 13.4367C7.71997 13.4367 7.74528 11.4364 7.74528 8.10781C7.74528 3.19121 7.7516 2.76368 7.85917 2.51937C7.95409 2.28271 7.99205 2.25217 8.20086 2.2598C8.36537 2.26744 8.47294 2.32088 8.56153 2.45066C8.68175 2.62626 8.68808 2.75604 8.6944 5.05402V7.47414L8.98547 7.63447C9.43472 7.87114 10.1307 7.84823 10.5041 7.58866C11.0672 7.19167 11.352 6.36715 11.352 5.12273C11.352 3.84777 11.1115 2.98508 10.561 2.32088C10.2573 1.94679 9.52964 1.3742 9.36512 1.3742C9.32083 1.3742 9.23224 1.32076 9.16264 1.25969C9.09936 1.19861 8.9918 1.14517 8.93485 1.14517C8.87157 1.14517 8.73237 1.09936 8.61847 1.03829C8.29577 0.877964 7.99205 0.755812 7.74528 0.687102C7.62505 0.656564 7.44156 0.587854 7.33399 0.549681C6.87208 0.35882 5.71415 0 5.57494 0C5.51799 0 5.46737 0.0458066 5.46737 0.0916134ZM18.2616 2.76368C18.1667 2.87819 18.1604 3.29809 18.2616 3.42024C18.3185 3.48895 19.2297 3.51186 21.9695 3.51186C24.5511 3.51186 25.6838 3.53476 25.8673 3.60347C26.6645 3.87068 26.9366 5.11509 26.3355 5.77166C25.9559 6.19155 26.0318 6.18392 22.7098 6.18392H19.6347L19.2993 6.36715C19.0905 6.48166 18.8564 6.70306 18.6792 6.93973C18.2679 7.51232 18.173 8.02383 18.1983 9.54309L18.2173 10.7264H19.6726L19.7043 9.27588C19.7359 7.68028 19.7549 7.6192 20.1599 7.24511L20.3687 7.06188L23.5641 7.01608C25.3231 6.99317 26.8291 6.94737 26.9176 6.90919C27.3479 6.7336 27.7022 6.32897 27.9617 5.72585C28.1388 5.31359 28.1199 4.34401 27.93 3.90121C27.7465 3.48132 27.4365 3.10723 27.0885 2.88583L26.8227 2.71024L22.5833 2.68733C19.274 2.67206 18.3249 2.68733 18.2616 2.76368ZM33.6248 2.74077C33.2958 2.82475 33.0047 3.03088 32.7136 3.3897C32.2581 3.95465 32.2327 4.15315 32.2327 6.70306V8.93233L32.0809 9.23007C31.9923 9.3904 31.8278 9.60416 31.7139 9.70341C31.5051 9.88664 31.4861 9.88664 29.6701 9.90954C28.664 9.91717 27.7972 9.92481 27.7592 9.92481C27.7022 9.92481 27.6769 10.0622 27.6769 10.3447V10.7646H29.9802C32.4416 10.7646 32.4352 10.7646 32.9351 10.36C33.1376 10.1997 33.4856 9.61943 33.5805 9.29115C33.6185 9.14609 33.6628 8.07727 33.6817 6.66489L33.7197 4.28294L33.9665 3.97756C34.0994 3.81723 34.2829 3.65691 34.3778 3.61874C34.4664 3.5882 35.3838 3.54239 36.4089 3.51949L38.2755 3.47368V2.71024L36.0609 2.7026C34.846 2.69497 33.745 2.71024 33.6248 2.74077ZM39.8258 2.78658C39.7751 2.86293 39.7562 3.33626 39.7751 4.55778C39.7941 6.40532 39.8005 6.42059 40.2624 6.80231L40.4775 6.98554L43.9323 7.02371C47.2543 7.06188 47.3935 7.06952 47.577 7.21457C48.0199 7.57339 48.1781 7.91694 48.1781 8.51243C48.1781 9.05448 48.0072 9.40567 47.5706 9.74922C47.4061 9.879 47.1467 9.88664 43.6539 9.90954C41.6038 9.91717 39.8827 9.94008 39.8384 9.96298C39.7815 9.98588 39.7625 10.1157 39.7751 10.36L39.7941 10.7264L43.9703 10.7493C48.621 10.7722 48.3489 10.7951 48.9247 10.2455C49.8675 9.33696 49.8675 7.60393 48.9247 6.70306C48.3552 6.16102 48.5387 6.18392 44.8688 6.18392C42.3694 6.17628 41.5405 6.15338 41.4709 6.08467C41.1925 5.8251 41.1545 5.64951 41.1545 4.65703C41.1545 4.0081 41.1798 3.66454 41.2305 3.60347C41.2874 3.53476 42.2808 3.51186 45.3054 3.51186C48.8931 3.51186 49.3044 3.49659 49.3423 3.3897C49.4056 3.19121 49.3866 2.86293 49.3044 2.76368C49.2474 2.69497 48.1085 2.67206 44.5651 2.67206C40.5661 2.67206 39.8954 2.68733 39.8258 2.78658ZM4.61316 7.72608C4.51192 7.77189 4.34108 7.84823 4.23351 7.90167C4.13227 7.95512 3.98674 8.01619 3.91713 8.03909C3.84753 8.062 3.63239 8.15361 3.44257 8.24523C3.25274 8.33684 3.0123 8.43609 2.90473 8.47426C2.80349 8.51243 2.55672 8.61168 2.36689 8.70329C2.17707 8.78727 1.84804 8.93233 1.63923 9.01631C0.443329 9.51255 -0.132474 10.0699 0.0257135 10.5737C0.139609 10.9478 0.544569 11.2837 1.06975 11.4517C1.17732 11.4899 1.34816 11.551 1.4494 11.5968C2.04419 11.8411 2.67061 11.925 3.71465 11.8945C4.99281 11.864 4.96117 11.8869 4.96117 10.9784C4.96117 10.2684 4.9675 10.2684 4.3917 10.5356C3.58177 10.9097 3.23376 11.0089 2.83513 10.9784C2.37322 10.9402 2.1391 10.7646 2.24034 10.5279C2.27831 10.4516 2.39853 10.36 2.51243 10.3142C2.61999 10.276 2.87309 10.1691 3.06292 10.0775C3.25274 9.98588 3.48053 9.89427 3.56912 9.87137C3.65771 9.84846 3.75894 9.79502 3.80324 9.75685C3.84753 9.71104 3.97408 9.64997 4.08798 9.61943C4.45497 9.50491 4.86626 9.30642 4.91055 9.2148C4.9675 9.10792 4.98015 7.92458 4.92321 7.75662C4.87891 7.6192 4.87891 7.6192 4.61316 7.72608Z" fill="black"/>
</svg>
