<svg width="22" height="30" viewBox="0 0 22 30" fill="none" xmlns="http://www.w3.org/2000/svg">
<path d="M19.8805 14.4609C18.3196 13.4391 17.1196 12.7805 15.8 11.4C15.561 11.1609 15.261 10.8609 15.1391 10.8609C15.0196 10.7391 14.7805 10.8609 14.6 10.8609C13.9391 10.8609 13.461 10.5609 12.9196 10.3195C13.5196 10.2609 14.1805 10.2 14.661 10.2C16.8196 10.2 18.3805 10.7391 19.461 11.4C19.8196 11.0391 20.361 10.7391 20.661 10.2609C20.3 9.83907 20.1196 8.81954 20 8.28047C19.8805 7.86094 19.8805 7.50001 19.761 7.26094C19.1 4.86094 18.3196 3.00001 17 1.20001C18.3196 3.78047 19.5196 6.41954 19.4 10.2C18.3196 9.83907 14.961 9.60001 14.6 9.60001C14.061 9.60001 13.3391 9.78047 12.8 9.78047C13.0391 9.41954 13.161 8.88047 13.5805 8.76094C13.8196 8.63907 14.1196 8.76094 14.4805 8.76094C15.561 8.76094 16.761 8.63907 17.061 9.00001C17.3 8.63907 17.8391 8.51954 17.961 8.21954C17.961 8.10001 17.8391 7.56094 17.7196 7.20001C17.6 6.83907 17.4805 6.41954 17.361 6.18047C16.9391 4.38047 16.1 2.40001 15.4391 0.960942L15.2 0.600006C15.861 2.81954 16.4 4.98047 16.4 7.80001C15.2 7.80001 14.7196 7.80001 13.4 7.80001C12.9805 8.16094 12.561 8.76094 12.2 9.00001C12.3196 8.46094 11.9 8.10001 11.6 7.86094C11.7196 8.10001 12.0196 8.76094 11.7805 9.11954C11.5391 9.11954 11.661 8.76094 11.4196 8.76094C11.3 8.88047 11.1196 8.93907 11 8.93907C10.8196 8.93907 10.7 8.93907 10.5805 8.76095C10.3391 8.76095 10.461 9.11954 10.2196 9.11954C9.98052 8.76095 10.2805 8.10001 10.4 7.86095C10.0391 8.10001 9.68052 8.46095 9.80005 9.00001C9.43911 8.76095 9.08052 8.16095 8.60005 7.80001C7.28052 7.80001 6.80005 7.80001 5.60005 7.80001C5.60005 4.98048 6.13911 2.81954 6.80005 0.600012L6.56099 0.960948C5.90005 2.40001 5.11958 4.43908 4.63911 6.18048C4.51958 6.41954 4.40005 6.83908 4.28052 7.20001C4.16099 7.56095 4.03911 8.10001 4.03911 8.21954C4.16099 8.58048 4.70005 8.70001 4.93911 9.00001C5.18052 8.63908 6.38052 8.76095 7.51958 8.76095C7.88052 8.76095 8.18052 8.63908 8.41958 8.76095C8.83911 8.88048 8.96099 9.41954 9.20005 9.78048C8.66098 9.78048 7.93911 9.60001 7.40005 9.60001C7.03911 9.60001 3.68052 9.83908 2.60005 10.2C2.48052 6.41954 3.68052 3.78048 5.00005 1.20001C3.68052 3.00001 2.90005 4.86095 2.23911 7.31954C2.11958 7.56095 2.11958 7.86095 2.00005 8.33908C1.88052 8.88048 1.70005 9.90001 1.33911 10.3195C1.70005 10.7391 2.23911 11.1 2.53911 11.4609C3.61958 10.8 5.18052 10.2609 7.33911 10.2609C7.76099 10.2609 8.41958 10.2609 9.08052 10.3805C8.53911 10.6195 8.06099 10.9195 7.40005 10.9195C7.16098 10.9195 6.98052 10.8 6.86099 10.9195C6.73911 10.9195 6.43911 11.2805 6.20005 11.4609C4.88052 12.7805 3.68052 13.5 2.11958 14.5195C1.70005 14.8805 1.33911 15.1805 0.800049 14.7609C0.800049 19.2 1.81958 22.5 3.26098 25.5C3.43911 25.7391 3.80005 26.4 3.80005 26.4C2.71958 23.8195 2.00005 20.8195 2.00005 17.2195C2.00005 16.8609 1.88052 16.3195 2.00005 16.0805C2.11958 15.6609 2.78052 15.0609 3.20005 14.7609C4.40005 13.6195 5.30005 13.2 6.61958 12.1805C6.86099 11.9391 7.03911 11.7609 7.28052 11.6391C7.51958 11.5195 8.60005 11.3391 9.08052 11.1C8.53911 11.6391 7.88052 12.6609 7.21958 13.2C7.10005 13.3195 6.98052 13.2 6.80005 13.2C6.80005 18.6 7.03911 23.1609 8.48052 26.9391C8.83911 27.8391 9.26099 28.7391 9.80005 29.4C7.81958 25.8 8.00005 19.9805 8.00005 14.4C7.58052 14.0391 7.88052 13.8609 8.23911 13.4391C8.66099 13.0195 9.20005 11.8805 9.80005 11.6391C9.80005 11.8805 9.68052 12.061 9.56099 12.2391C9.43911 12.4195 9.20005 12.7195 9.20005 12.8391C9.08052 13.261 9.31958 14.161 9.43911 14.6391C9.80005 16.2 10.2196 18 10.761 19.2C11.0001 19.2 10.8805 18.7195 11.0001 18.6C11.1196 18.7195 11.0001 19.2 11.2391 19.2C11.7805 18 12.261 16.2 12.561 14.6391C12.6805 14.2195 12.9196 13.3195 12.8001 12.8391C12.8001 12.7195 12.561 12.4805 12.4391 12.3C12.3196 12.1195 12.2001 11.8805 12.2001 11.7C12.7391 11.9391 13.2805 13.0195 13.761 13.5C14.1196 13.9195 14.4196 14.1609 14.0001 14.4609C14.0001 20.0391 14.1805 25.8609 12.2001 29.4609C12.7391 28.8 13.2196 27.9 13.5196 27C14.961 23.1609 15.2001 18.6 15.2001 13.2C14.961 13.2 14.8391 13.3195 14.7805 13.2C14.1196 12.6609 13.461 11.6391 12.9196 11.1C13.4001 11.3391 14.4805 11.5195 14.7196 11.6391C14.961 11.761 15.1391 12 15.3805 12.1805C16.7001 13.2 17.5391 13.6805 18.8001 14.7609C19.2196 15.1195 19.8805 15.6609 20.0001 16.0805C20.1196 16.3195 20.0001 16.8609 20.0001 17.2195C20.0001 20.8195 19.3391 23.8195 18.2001 26.4C18.2001 26.4 18.561 25.7391 18.7391 25.3805C20.1805 22.3805 21.2001 19.0805 21.2001 14.6391C20.661 15.1195 20.3001 14.7609 19.8805 14.4609Z" fill="#F1F1F1"/>
</svg>
