<svg width="50" height="11" viewBox="0 0 50 11" fill="none" xmlns="http://www.w3.org/2000/svg">
<g clip-path="url(#clip0_206_72)">
<path d="M48.8575 8.79598H48.955V8.15791H49.1859V8.0752H48.6265V8.15791H48.8575V8.79598Z" fill="black"/>
<path d="M49.3731 8.21045L49.5673 8.79602H49.6638L49.858 8.21045V8.79602H49.9386V8.07524H49.8211L49.619 8.69084L49.41 8.07524H49.2757V8.79602H49.3731V8.21045ZM33.3416 7.06951V4.08943C33.3416 3.48148 33.6253 3.04613 34.2305 3.04613H37.9634C37.9862 3.04613 38.0082 3.02346 38.0082 3.00099V2.40806C38.008 2.40285 38.0068 2.39772 38.0047 2.39294H33.4405C32.4512 2.51871 31.9679 3.20818 31.9679 4.08943V7.06941C31.9679 7.67736 31.6762 8.11272 31.0792 8.11272H27.1371C27.1147 8.11272 27.0922 8.12783 27.0922 8.15775V8.75079C27.0922 8.77544 27.1073 8.79433 27.125 8.8005H31.6009C32.7673 8.76988 33.3416 8.02513 33.3416 7.06951ZM18.0055 8.8005H19.3162C19.3261 8.79662 19.3345 8.78978 19.3404 8.78092C19.3463 8.77206 19.3493 8.76161 19.349 8.75099V6.85179C19.349 6.24384 19.6924 5.8234 20.1926 5.8234H25.5912C26.8083 5.8234 27.3982 5.07278 27.3982 4.08943C27.3982 3.20818 26.9155 2.51871 25.9256 2.39294H17.9813C17.979 2.39792 17.9751 2.40179 17.9751 2.40806V3.00099C17.9751 3.03102 17.99 3.04613 18.0198 3.04613H25.1357C25.7405 3.04613 26.0243 3.48148 26.0243 4.08943C26.0243 4.69748 25.7405 5.13283 25.1357 5.13283H19.5058C18.6322 5.13283 17.9751 5.87609 17.9751 6.85179V8.75109C17.975 8.77544 17.9855 8.79433 18.0055 8.8005Z" fill="black"/>
<path d="M37.9863 8.11292H45.1545C45.1765 8.11292 45.1914 8.12783 45.1914 8.14294V8.75099C45.1914 8.78101 45.2142 8.79602 45.2362 8.79602H46.5282C46.5511 8.79602 46.5728 8.78101 46.5728 8.75099V8.15795C46.5728 8.13539 46.5957 8.11292 46.6177 8.11292H47.9018C47.9317 8.11292 47.9466 8.09035 47.9466 8.06798V7.46739C47.9466 7.44472 47.9317 7.42235 47.9018 7.42235H46.6177C46.5957 7.42235 46.5728 7.39968 46.5728 7.37741V3.04613C46.5728 2.69269 46.4416 2.46761 46.2207 2.39294H45.8469C45.7304 2.42287 45.6037 2.47646 45.4679 2.55808L37.7474 7.32472C37.4487 7.51233 37.344 7.7224 37.4187 7.88008C37.4785 8.01529 37.6498 8.11292 37.9863 8.11292ZM39.1062 7.31717L45.0868 3.61659C45.1246 3.58657 45.1994 3.59412 45.1994 3.67664V7.37741C45.1994 7.39998 45.1765 7.42235 45.1545 7.42235H39.1432C39.0914 7.42235 39.0683 7.40754 39.0614 7.39233C39.0533 7.3622 39.0682 7.33974 39.1062 7.31717Z" fill="black"/>
<path d="M5.0081 0.000732422C5.5905 0.109298 6.16295 0.264392 6.73272 0.426047C7.05852 0.520694 7.38362 0.618621 7.70653 0.722912C8.21377 0.884468 8.71882 1.0674 9.17823 1.3402C9.38403 1.46517 9.58167 1.60635 9.75059 1.77854C9.93357 1.95821 10.0835 2.16872 10.1934 2.40041C10.3937 2.81876 10.4623 3.28613 10.4826 3.74565C10.4922 4.04549 10.4916 4.34793 10.4355 4.6439C10.389 4.90109 10.3062 5.15471 10.1686 5.37811C10.0472 5.57535 9.87824 5.74606 9.67324 5.85601C9.47659 5.96199 9.2515 6.0125 9.02851 6.00803C8.69028 6.01151 8.3621 5.90373 8.05858 5.76236C8.05301 4.75296 8.05768 3.74336 8.05619 2.73416C8.0541 2.55153 8.06653 2.367 8.02964 2.18686C8.0037 2.04727 7.94683 1.90659 7.83717 1.81185C7.76459 1.74633 7.67034 1.70935 7.5757 1.68936C7.47996 1.67117 7.37785 1.71183 7.3186 1.78868C7.22008 1.91176 7.19423 2.07521 7.18975 2.22841C7.18896 4.93072 7.19075 7.63313 7.18896 10.3352C6.46192 10.1048 5.73496 9.87415 5.0081 9.64318C5.00741 6.42906 5.00771 3.21495 5.0081 0.000732422ZM1.7406 6.83917C2.68836 6.50363 3.63513 6.16471 4.58329 5.83036C4.58478 6.20239 4.58329 6.57461 4.58388 6.94704C4.58329 6.99754 4.58647 7.04825 4.5802 7.09845C3.83078 7.3641 3.08275 7.63442 2.33413 7.90176C2.23034 7.94103 2.12386 7.98537 2.04383 8.06461C2.00654 8.10179 1.97612 8.15677 1.9965 8.20996C2.02215 8.27269 2.08618 8.30689 2.14523 8.33264C2.30947 8.39945 2.48902 8.40899 2.664 8.41695C2.85906 8.41387 3.05502 8.39925 3.246 8.3571C3.37515 8.33165 3.49942 8.2882 3.6225 8.24197C3.94243 8.12615 4.26236 8.00963 4.58279 7.895C4.58508 8.20976 4.58319 8.52472 4.58378 8.83988C4.58279 8.90281 4.58667 8.96614 4.5804 9.02877C4.1869 9.09946 3.78873 9.14738 3.38877 9.15374C2.58337 9.17194 1.77609 9.04726 1.01106 8.79553C0.760228 8.72286 0.510885 8.62603 0.30131 8.46676C0.185984 8.37748 0.0827866 8.26523 0.0302934 8.12714C-0.0136498 8.01012 -0.0104684 7.87511 0.0443115 7.76227C0.097103 7.64963 0.189364 7.56075 0.29097 7.49156C0.525996 7.3292 0.785381 7.20533 1.04805 7.09497C1.27462 6.99854 1.50945 6.92338 1.7406 6.83917Z" fill="black"/>
<path d="M9.36614 6.41531C9.58109 6.39045 9.79742 6.38459 10.0136 6.37683C10.7244 6.37952 11.439 6.4679 12.1191 6.68125C12.2525 6.72181 12.3817 6.77441 12.5146 6.81666C12.7517 6.90325 12.9889 7.00824 13.1786 7.17864C13.2925 7.28254 13.3908 7.42262 13.3921 7.58249C13.3989 7.71272 13.34 7.83759 13.2555 7.93353C13.0949 8.11368 12.8825 8.23756 12.6693 8.34553C12.4424 8.46125 12.1984 8.53591 11.9604 8.624C10.5077 9.14565 9.05476 9.6671 7.60235 10.1894C7.60205 9.78233 7.60275 9.37551 7.60205 8.96898C7.60424 8.95268 7.59539 8.92434 7.61826 8.92007C8.7236 8.52687 9.82864 8.13247 10.9339 7.73808C11.0833 7.6822 11.2443 7.64174 11.371 7.54043C11.4229 7.49967 11.4737 7.43485 11.4483 7.36486C11.4217 7.30371 11.3583 7.26991 11.2999 7.24456C11.1345 7.17904 10.9544 7.16642 10.7784 7.16145C10.5029 7.16333 10.225 7.19724 9.96295 7.28562C9.17565 7.56151 8.38985 7.84078 7.60235 8.11577C7.60245 7.67882 7.60205 7.24217 7.60255 6.80533C8.17212 6.6054 8.76704 6.4842 9.36614 6.41531ZM12.5956 9.42522C12.7675 9.40384 12.947 9.48089 13.05 9.62018C13.1625 9.76404 13.183 9.97142 13.1036 10.1357C13.0234 10.3061 12.8401 10.4255 12.6502 10.4193C12.4756 10.4232 12.3064 10.3215 12.2204 10.1708C12.1427 10.0381 12.1334 9.86823 12.1935 9.72705C12.2612 9.564 12.4205 9.4451 12.5956 9.42522ZM12.5582 9.51708C12.4611 9.53964 12.3754 9.59661 12.3171 9.67744C12.2827 9.72498 12.2587 9.77929 12.2468 9.83677C12.2349 9.89425 12.2354 9.95359 12.2481 10.0109C12.2714 10.1177 12.336 10.211 12.4278 10.2704C12.5673 10.362 12.7629 10.357 12.8964 10.2564C13.0341 10.159 13.0995 9.97232 13.0521 9.81056C13.0229 9.7012 12.9447 9.60805 12.8463 9.55386C12.7588 9.50763 12.6544 9.49421 12.5582 9.51708Z" fill="black"/>
<path d="M12.4393 9.63409C12.5289 9.63359 12.6188 9.63399 12.7084 9.63379C12.7591 9.63448 12.815 9.64632 12.851 9.68529C12.8871 9.72605 12.8901 9.7855 12.8801 9.8366C12.8745 9.87041 12.8447 9.89039 12.8232 9.91395C12.8419 9.93065 12.8659 9.94616 12.8704 9.97331C12.8807 10.0251 12.8698 10.0794 12.8864 10.1301C12.8968 10.1481 12.9075 10.1662 12.9083 10.1876C12.8711 10.1886 12.834 10.188 12.7968 10.1885C12.7718 10.1295 12.7906 10.0633 12.7749 10.0025C12.7687 9.97778 12.743 9.96237 12.7187 9.96316C12.658 9.96068 12.5971 9.96237 12.5367 9.96237C12.5357 10.0377 12.5388 10.1133 12.5349 10.1885C12.5032 10.1879 12.4716 10.188 12.4399 10.1886C12.4382 10.0035 12.4393 9.81881 12.4393 9.63409ZM12.5365 9.72197V9.87518C12.5907 9.87558 12.645 9.87597 12.6994 9.87538C12.7263 9.87518 12.7577 9.87011 12.7752 9.84724C12.784 9.83259 12.7888 9.81585 12.7891 9.79873C12.7893 9.78161 12.785 9.76473 12.7766 9.74981C12.7626 9.72655 12.7331 9.72416 12.7088 9.72267C12.6514 9.72088 12.5939 9.72197 12.5365 9.72197Z" fill="black"/>
</g>
<defs>
<clipPath id="clip0_206_72">
<rect width="50" height="10.42" fill="white"/>
</clipPath>
</defs>
</svg>
