<svg width="50" height="28" viewBox="0 0 50 28" fill="none" xmlns="http://www.w3.org/2000/svg">
<path d="M46.8509 8.16001C46.8507 9.32423 46.4673 10.4407 45.7851 11.264C45.1029 12.0873 44.1776 12.5502 43.2127 12.5507C41.2032 12.5507 39.5963 10.5846 39.5963 8.16001C39.5963 6.99552 39.9797 5.87872 40.6622 5.0553C41.3447 4.23188 42.2703 3.76929 43.2354 3.76929C44.2006 3.76929 45.1262 4.23188 45.8086 5.0553C46.4911 5.87872 46.8745 6.99552 46.8745 8.16001H46.8509ZM43.1901 1.90179e-05C41.4029 -0.00463815 39.6872 0.846223 38.4193 2.36594C37.1514 3.88565 36.4349 5.9501 36.427 8.1064L32.2085 15.4053C32.0307 15.378 31.8512 15.378 31.6952 15.378C30.784 15.3823 29.8903 15.6799 29.1062 16.2401L9.99952 6.97507C9.75377 5.6169 9.13057 4.40092 8.23329 3.52885C7.33601 2.65679 6.21859 2.18107 5.06641 2.18061C3.72344 2.18408 2.43631 2.82938 1.48677 3.97525C0.537235 5.12113 0.00263537 6.67423 0 8.29459C0.00287403 9.91486 0.537549 11.4678 1.48704 12.6136C2.43652 13.7594 3.72352 14.4048 5.06641 14.4086C5.97761 14.4043 6.87136 14.1066 7.65538 13.5464L26.7621 22.8115C27.0078 24.1696 27.6311 25.3856 28.5283 26.2577C29.4256 27.1297 30.543 27.6055 31.6952 27.6059C34.3069 27.6059 36.4732 25.1824 36.7172 22.1123L43.2136 16.3758C44.102 16.3765 44.9817 16.166 45.8025 15.7561C46.6233 15.3463 47.3691 14.7453 47.9972 13.9874C48.6253 13.2295 49.1235 12.3297 49.4631 11.3394C49.8028 10.349 49.9773 9.2876 49.9767 8.21581C49.9773 7.14402 49.8028 6.08261 49.4631 5.09227C49.1235 4.10193 48.6253 3.20209 47.9972 2.44422C47.3691 1.68635 46.6233 1.08532 45.8025 0.675498C44.9817 0.265675 44.102 0.0551008 43.2136 0.0558201L43.1901 1.90179e-05ZM43.1901 2.69266C44.3916 2.69353 45.5438 3.26984 46.3934 4.29497C47.2431 5.32011 47.7207 6.71025 47.7215 8.16001C47.7207 9.60978 47.2431 10.9999 46.3934 12.0251C45.5438 13.0502 44.3916 13.6265 43.1901 13.6274C41.9886 13.6262 40.8367 13.0498 39.9873 12.0247C39.1378 10.9996 38.6603 9.60959 38.6596 8.16001C38.6603 6.71044 39.1378 5.32047 39.9873 4.29536C40.8367 3.27025 41.9886 2.69382 43.1901 2.69266ZM5.04283 3.77038C6.47108 3.77038 7.69891 4.73977 8.32462 6.14026L6.47198 5.25183C4.97663 4.6052 3.32441 5.49363 2.74495 7.27158C2.141 9.04954 2.83291 11.0693 4.28382 11.8494L5.84628 12.6033C5.58319 12.6792 5.31332 12.7156 5.04283 12.7116C4.553 12.7127 4.06781 12.5972 3.61508 12.3715C3.16236 12.1459 2.75101 11.8146 2.40465 11.3967C2.05829 10.9788 1.78372 10.4825 1.59672 9.93628C1.40971 9.39004 1.31394 8.80463 1.31489 8.21362C1.31394 7.62262 1.40971 7.03721 1.59672 6.49097C1.78372 5.94473 2.05829 5.44842 2.40465 5.03052C2.75101 4.61262 3.16236 4.28134 3.61508 4.05571C4.06781 3.83007 4.553 3.71452 5.04283 3.71567V3.77038ZM31.6725 16.9677C32.1624 16.9663 32.6476 17.0816 33.1004 17.3071C33.5531 17.5325 33.9645 17.8637 34.3109 18.2815C34.6573 18.6994 34.9319 19.1957 35.1189 19.7419C35.3059 20.2882 35.4016 20.8736 35.4005 21.4646C35.4014 22.0555 35.3057 22.6409 35.1186 23.1871C34.9316 23.7333 34.657 24.2295 34.3107 24.6473C33.9643 25.0651 33.5529 25.3963 33.1002 25.6218C32.6475 25.8473 32.1623 25.9627 31.6725 25.9614C30.9957 25.9651 30.3312 25.7434 29.7522 25.3206C29.1731 24.8978 28.702 24.2904 28.3908 23.5653C28.9938 23.8618 29.6186 24.1583 30.2225 24.4537C30.9515 24.8006 31.7641 24.7889 32.486 24.4212C33.2079 24.0534 33.7815 23.3588 34.0838 22.4865C34.2277 22.0516 34.2991 21.5868 34.294 21.1185C34.2889 20.6503 34.2073 20.1879 34.0539 19.7577C33.9006 19.3276 33.6784 18.9381 33.4002 18.6116C33.122 18.2851 32.7931 18.0281 32.4325 17.8551L30.8927 17.1023C31.1602 17.0213 31.4277 16.9929 31.6961 16.9929L31.6725 16.9677Z" fill="#333333"/>
</svg>
