<svg width="49" height="25" viewBox="0 0 49 25" fill="none" xmlns="http://www.w3.org/2000/svg">
<path d="M24.4141 2.64249C24.7442 2.66112 25.0595 2.81325 25.3092 3.0744C25.6496 3.46311 25.7388 4.11128 25.5777 4.62988C24.9515 6.18504 23.4623 7.2238 22.4447 7.56745C21.8359 7.74021 21.0663 7.74021 20.5112 7.48107C20.2425 7.67542 20.0158 8.30356 19.6876 8.04254C19.2127 7.59499 19.6238 6.89456 19.3496 6.39755C19.2931 6.29521 19.1507 6.2877 19.0791 6.12026C18.703 5.12657 19.1686 4.17606 19.6876 3.42023C20.553 2.25534 23.0356 0.957443 24.4141 2.64249ZM21.5317 3.41992C21.0482 3.5279 20.5021 3.78172 20.2069 4.19766C19.9115 4.61329 19.7237 5.01859 19.9027 5.45049C20.5294 4.88902 20.8336 4.11128 21.5319 3.63619C21.5317 3.54949 21.6391 3.48471 21.5317 3.41992ZM24.4501 3.63619C23.2146 3.5063 22.2837 4.62988 21.4064 5.70964C21.3527 5.8824 21.0305 6.07675 21.2811 6.27111C22.4629 6.40068 23.5907 5.99069 24.4501 5.03987C24.701 4.75914 24.8794 4.39202 24.7546 4.00299C24.701 3.85214 24.5746 3.70097 24.4501 3.63619ZM35.1556 10.0731C35.7286 11.7582 36.2119 14.4147 35.1556 16.035C34.8693 16.4237 34.3681 16.782 34.0459 16.4885C32.8641 15.3439 32.3632 13.702 31.6291 12.2329C31.5218 12.1682 31.5218 12.3412 31.4681 12.406C31.1996 13.8964 31.7007 15.8406 30.8595 17.0067C30.5374 17.0715 30.2359 16.8715 30.1254 16.4885C29.7135 14.9549 30.1428 13.3562 30.2502 11.8226C30.501 11.0449 30.6084 10.1379 31.1635 9.55452C32.0587 9.98642 32.4883 11.1964 33.0071 12.0821C33.3834 12.7515 33.6874 13.5077 34.117 14.1124C34.4929 13.918 34.3079 13.3252 34.2962 12.9675C34.1525 11.5635 33.8304 10.2675 33.5258 8.92826C33.5085 8.58274 33.3474 7.99935 33.6511 7.7834C34.4578 8.21562 34.7974 9.23059 35.1556 10.0731ZM29.749 9.55452C29.749 9.87876 29.5343 10.2837 29.3548 10.3323C27.6363 10.6562 25.7206 10.4618 24.1095 11.1097C24.0558 11.3472 24.2885 11.3904 24.4138 11.4552C25.792 11.7143 27.2425 11.7791 28.5854 12.1898C29.2954 12.4073 29.5524 13.4213 29.6061 14.2635C29.6391 14.9277 29.4274 15.7323 28.8899 16.1861C27.5655 17.2014 25.5424 17.1579 24.1993 16.2296C23.6859 15.8822 23.1967 15.3226 23.1609 14.6313C23.164 14.0823 23.3581 13.6501 23.6802 13.4432C24.9694 12.8166 26.5626 13.1628 27.6728 13.9615C27.7439 14.3937 27.3564 14.3702 27.1709 14.5233C25.9354 15.3874 25.0047 13.5518 23.859 14.2206C23.6979 14.3502 23.5814 14.7117 23.7695 14.8256C25.1837 15.5818 26.7593 15.0416 28.1556 14.5665C28.3167 14.5017 28.5138 14.3073 28.5314 14.113C28.4778 13.4216 27.8334 13.2708 27.4215 13.0764C26.2042 12.7093 24.8615 12.7093 23.5544 12.5581C23.3039 12.4933 22.9845 12.2827 22.9101 12.0398C22.7669 11.5216 22.7669 10.8086 23.0891 10.3767C24.7539 8.60527 27.278 8.75675 29.3906 9.23184C29.534 9.29538 29.6951 9.36016 29.749 9.55452ZM21.9257 10.3754C22.0868 12.4489 22.1763 14.3718 22.1405 16.5532C22.1047 16.8337 21.8362 16.8988 21.6572 17.0067C21.3708 17.0715 21.0007 16.998 20.8873 16.8124C20.4757 16.0127 20.6189 14.9333 20.5831 13.9612C20.6367 12.4279 20.6189 10.7645 20.9771 9.33857C21.0456 9.13138 21.2456 8.94985 21.4066 9.07911C21.8362 9.33857 21.9078 9.85716 21.9257 10.3754ZM41.8161 10.0731C41.9022 10.2478 41.9922 10.5175 41.8161 10.6346C41.0104 11.0665 39.9186 10.8721 38.9874 11.0017C38.7368 11.2609 38.5397 11.6928 38.6289 12.0818C38.7189 12.1466 38.7991 12.2452 38.8979 12.2326C39.4704 12.2761 40.33 11.9087 40.7064 12.5566C40.7982 12.7494 40.694 13.4692 40.4379 13.4855C39.7394 13.5941 38.5908 13.3797 38.2533 13.5941C37.8238 13.9396 37.8593 14.609 37.6982 15.1495C38.0027 15.3871 38.3215 15.1439 38.6826 15.0845C39.3456 14.9549 40.0797 14.7173 40.7417 14.8901C40.867 15.1708 41.0462 15.4735 40.9207 15.819C39.7921 16.8991 38.3363 18.0061 36.7854 17.223C36.2033 16.9081 35.9439 15.8406 36.1411 14.9339C36.2661 14.2857 36.8209 13.6595 36.4811 12.9681C36.4274 12.6655 36.5709 12.4066 36.7857 12.3419C37.3763 12.3419 37.2508 11.4561 37.5553 11.0455C37.2152 10.592 36.3561 10.6136 36.4456 9.70631C36.8575 9.44717 37.3589 9.53355 37.8238 9.44717C38.88 9.18771 40.0616 9.03655 41.1365 9.18771C41.3505 9.23967 41.6371 9.74919 41.8161 10.0731ZM16.2504 5.14816C17.9025 6.7775 20.0458 9.55483 19.7774 12.7515C19.4549 15.2791 17.235 17.1798 15.3552 17.7848C13.5291 18.4326 11.2376 18.3679 9.37536 17.8496C9.25008 18.2602 9.12479 18.7566 8.73103 18.9296C8.48045 19.0376 8.15802 18.9728 7.96114 18.7785C7.40629 18.1519 7.85375 16.9423 7.04807 16.5539C5.4725 15.7545 3.77165 14.1775 2.96622 12.2336C2.85883 11.8449 2.98412 11.4561 3.181 11.1538C4.4165 9.96577 5.97391 9.49067 7.53158 9.12324C7.62107 9.16643 7.58528 9.01526 7.65687 8.97207C7.74636 7.67605 7.78216 6.35812 8.12222 5.19167C8.19978 5.02798 8.3907 4.97571 8.51625 5.08369C9.50091 5.99069 9.0353 7.69765 9.46511 8.92857C11.345 9.03655 13.2248 9.14452 14.7106 10.4193C15.212 10.916 15.3342 11.8646 15.176 12.4066C15.018 12.9478 14.4958 13.3356 14.0123 13.3781C13.6899 13.3781 13.0813 13.416 13.1171 13.1193C13.1529 12.8223 14.2123 12.3362 13.887 11.9309C13.4193 11.3485 11.0793 11.002 9.62905 10.7861C9.45007 10.7429 9.28587 10.8077 9.28587 11.0452C9.25008 12.6868 9.14269 14.5011 9.37536 16.0785C9.39326 16.1867 9.50065 16.3163 9.5904 16.3373C12.1504 16.8343 14.8538 16.5532 16.8589 14.7821C17.7899 13.8754 18.0944 12.6001 17.9331 11.1964C17.1274 7.28671 13.7438 4.9319 10.9688 3.41992C8.26567 1.99433 5.27562 1.25978 2.07105 1.45445C1.56082 1.49951 0.752285 1.71202 0.746319 1.92985C0.740353 2.14768 1.66224 2.07914 1.55174 2.49133C1.4415 2.9032 0.504562 2.65877 0.227009 2.55611C-0.0505436 2.45346 -0.0235665 1.97273 0.0480266 1.6704C0.746319 0.180016 2.6949 0.0595213 3.57502 0.00725473C8.44439 -0.144225 13.1532 2.09323 16.2504 5.14816ZM7.47789 10.9372C6.24239 10.9588 4.93555 11.11 3.7898 11.6283C3.55713 11.7363 3.27049 12.0386 3.44948 12.406C3.91483 13.1619 4.58044 13.7825 5.20403 14.2203C5.82761 14.6576 6.65431 15.214 7.40629 15.3439C7.58528 13.9396 7.58528 12.5572 7.56738 11.11C7.49552 11.0668 7.56712 10.9804 7.47789 10.9372ZM44.4832 8.97145C44.4295 10.8505 42.979 12.0173 42.979 13.8964C43.0327 13.9612 43.069 14.0476 43.1401 14.005C44.3042 12.4711 45.4497 10.2894 47.1506 9.64153C47.5988 9.59833 48.0037 10.0681 48.1713 10.4193C48.7622 11.8449 48.6195 13.8538 47.7957 15.1499C46.9457 16.4221 45.4679 17.6987 43.7857 17.4825C43.0877 19.5562 42.6034 21.738 42.3349 24.0061C42.1917 24.4596 41.8519 24.0493 41.6371 23.9629C40.1871 22.5805 41.3777 18.9209 41.476 18.4539C41.5744 17.9882 41.9624 16.8897 42.2462 15.9699C41.5658 14.5014 41.9954 12.7296 42.5502 11.3688C42.9798 10.4615 43.5712 9.55421 44.2692 8.86316C44.3579 8.86347 44.4295 8.88507 44.4832 8.97145ZM47.3661 11.3044C47.1514 11.2612 47.0616 11.607 46.8829 11.6718C46.0596 12.795 45.2357 13.9183 44.8238 15.2575C45.3792 15.3439 45.8443 14.912 46.328 14.6745C47.1514 14.0479 47.6707 13.0116 47.617 11.8233C47.5809 11.6283 47.4377 11.4771 47.3661 11.3044Z" fill="black"/>
</svg>
